<svg width="21" height="20" viewBox="0 0 21 20" fill="none" xmlns="http://www.w3.org/2000/svg">
<path fill-rule="evenodd" clip-rule="evenodd" d="M5.1406 2.66537C4.53282 2.66537 3.94992 2.90682 3.52015 3.33659C3.09038 3.76636 2.84894 4.34925 2.84894 4.95704V14.957C2.84894 15.5648 3.09038 16.1477 3.52015 16.5775C3.94992 17.0073 4.53282 17.2487 5.1406 17.2487H10.9739C11.5817 17.2487 12.1646 17.0073 12.5944 16.5775C13.0242 16.1477 13.2656 15.5648 13.2656 14.957V13.2904C13.2656 12.9452 12.9858 12.6654 12.6406 12.6654C12.2954 12.6654 12.0156 12.9452 12.0156 13.2904V14.957C12.0156 15.2333 11.9059 15.4983 11.7105 15.6936C11.5152 15.889 11.2502 15.9987 10.9739 15.9987H5.1406C4.86434 15.9987 4.59939 15.889 4.40403 15.6936C4.20868 15.4983 4.09894 15.2333 4.09894 14.957V4.95704C4.09894 4.68077 4.20868 4.41582 4.40403 4.22047C4.59939 4.02512 4.86434 3.91537 5.1406 3.91537H10.9739C11.2502 3.91537 11.5152 4.02512 11.7105 4.22047C11.9059 4.41582 12.0156 4.68077 12.0156 4.95704V6.62371C12.0156 6.96889 12.2954 7.24871 12.6406 7.24871C12.9858 7.24871 13.2656 6.96889 13.2656 6.62371V4.95704C13.2656 4.34925 13.0242 3.76636 12.5944 3.33659C12.1646 2.90682 11.5817 2.66537 10.9739 2.66537H5.1406ZM16.4159 7.0151C16.1718 6.77102 15.7761 6.77102 15.532 7.0151C15.2879 7.25918 15.2879 7.65491 15.532 7.89898L16.9651 9.33204H6.80727C6.46209 9.33204 6.18227 9.61186 6.18227 9.95704C6.18227 10.3022 6.46209 10.582 6.80727 10.582H16.9651L15.532 12.0151C15.2879 12.2592 15.2879 12.6549 15.532 12.899C15.7761 13.1431 16.1718 13.1431 16.4159 12.899L18.9126 10.4023C18.9246 10.3904 18.9362 10.3781 18.9473 10.3653C19.03 10.2695 19.0789 10.1547 19.0939 10.0364C19.099 9.99648 19.1002 9.95641 19.0976 9.91669C19.0882 9.77044 19.0276 9.62687 18.9159 9.5151L16.4159 7.0151Z" fill="#5F6980"/>
</svg>
