<svg width="21" height="20" viewBox="0 0 21 20" fill="none" xmlns="http://www.w3.org/2000/svg">
<path fill-rule="evenodd" clip-rule="evenodd" d="M10.7096 6.45802C10.7096 5.53754 11.4558 4.79135 12.3763 4.79135C13.2968 4.79135 14.043 5.53754 14.043 6.45802C14.043 7.37849 13.2968 8.12468 12.3763 8.12468C11.4558 8.12468 10.7096 7.37849 10.7096 6.45802ZM9.52676 7.08302H3.41797C3.07279 7.08302 2.79297 6.8032 2.79297 6.45802C2.79297 6.11284 3.07279 5.83302 3.41797 5.83302H9.52676C9.81287 4.52253 10.98 3.54135 12.3763 3.54135C13.7726 3.54135 14.9397 4.52253 15.2258 5.83302H18.418C18.7631 5.83302 19.043 6.11284 19.043 6.45802C19.043 6.8032 18.7631 7.08302 18.418 7.08302H15.2258C14.9397 8.39351 13.7726 9.37468 12.3763 9.37468C10.98 9.37468 9.81287 8.39351 9.52676 7.08302ZM5.70964 13.1247C5.70964 12.2042 6.45583 11.458 7.3763 11.458C8.29678 11.458 9.04297 12.2042 9.04297 13.1247C9.04297 14.0452 8.29678 14.7914 7.3763 14.7914C6.45583 14.7914 5.70964 14.0452 5.70964 13.1247ZM7.3763 16.0414C5.98 16.0414 4.81287 15.0602 4.52676 13.7497H3.41797C3.07279 13.7497 2.79297 13.4699 2.79297 13.1247C2.79297 12.7795 3.07279 12.4997 3.41797 12.4997H4.52676C4.81287 11.1892 5.98 10.208 7.3763 10.208C8.7726 10.208 9.93973 11.1892 10.2258 12.4997H18.418C18.7631 12.4997 19.043 12.7795 19.043 13.1247C19.043 13.4699 18.7631 13.7497 18.418 13.7497H10.2258C9.93973 15.0602 8.7726 16.0414 7.3763 16.0414Z" fill="#5F6980"/>
</svg>
